<?xml version="1.0" standalone="no"?>
<!DOCTYPE svg PUBLIC "-//W3C//DTD SVG 20010904//EN"
 "http://www.w3.org/TR/2001/REC-SVG-20010904/DTD/svg10.dtd">
<svg version="1.0" xmlns="http://www.w3.org/2000/svg"
 width="2000.000000pt" height="1247.000000pt" viewBox="0 0 2000.000000 1247.000000"
 preserveAspectRatio="xMidYMid meet">

<g transform="translate(0.000000,1247.000000) scale(0.100000,-0.100000)"
fill="#000000" stroke="none">
<path d="M7786 10161 c-1213 -1238 -2233 -2279 -2267 -2315 l-61 -66 4626 0
4626 0 0 1655 0 1655 -1025 0 -1025 0 0 -686 c0 -427 -4 -684 -9 -682 -6 2
-602 607 -1326 1346 -724 738 -1320 1342 -1325 1342 -5 0 -1001 -1012 -2214
-2249z"/>
<path d="M2671 7270 c-284 -40 -494 -199 -590 -449 -53 -137 -61 -216 -61
-581 0 -367 8 -443 63 -589 41 -109 90 -183 175 -263 151 -142 376 -210 641
-195 376 23 626 206 722 529 20 64 23 103 26 319 4 219 3 248 -12 262 -15 15
-54 17 -374 17 -420 0 -391 8 -391 -111 0 -41 5 -81 10 -89 8 -12 50 -16 247
-20 l238 -5 3 -95 c9 -282 -100 -456 -334 -536 -66 -22 -97 -27 -189 -28 -129
-1 -195 13 -286 61 -125 65 -201 168 -237 326 -25 107 -24 718 1 826 47 205
162 325 357 372 77 19 250 16 329 -4 131 -35 251 -137 311 -265 18 -37 37 -70
44 -74 21 -14 231 -9 251 6 45 33 -17 206 -118 327 -92 111 -264 210 -426 245
-81 18 -313 26 -400 14z"/>
<path d="M6556 7269 c-332 -48 -540 -235 -621 -555 -25 -101 -35 -236 -35
-479 0 -254 10 -376 40 -505 87 -367 388 -561 834 -537 314 17 528 140 640
368 25 52 55 129 66 172 52 208 52 787 0 992 -65 256 -218 425 -455 504 -145
48 -315 62 -469 40z m265 -243 c202 -36 335 -169 386 -384 15 -66 18 -123 18
-407 -1 -365 -7 -419 -64 -542 -111 -236 -442 -332 -701 -202 -129 65 -207
167 -248 326 -15 58 -17 117 -17 418 0 303 2 359 18 415 57 212 188 340 382
375 91 17 134 17 226 1z"/>
<path d="M12920 7268 c-36 -5 -103 -22 -150 -38 -269 -89 -423 -283 -475 -596
-23 -137 -17 -760 8 -864 91 -375 311 -553 713 -576 272 -16 514 57 652 198
88 90 137 177 177 313 38 131 48 279 42 609 -6 301 -13 366 -56 489 -49 141
-146 268 -261 346 -160 106 -413 153 -650 119z m339 -257 c159 -49 270 -170
316 -346 26 -97 39 -401 26 -615 -15 -260 -45 -362 -138 -461 -100 -107 -209
-151 -373 -153 -130 -1 -220 25 -312 87 -106 72 -158 159 -196 322 -24 105
-24 677 1 785 52 231 197 369 422 404 56 8 193 -4 254 -23z"/>
<path d="M4103 7243 c-31 -22 -33 -70 -33 -1008 0 -938 2 -987 33 -1007 7 -4
57 -8 113 -8 85 0 104 3 117 18 15 16 17 63 19 408 l3 389 255 3 256 2 214
-377 c118 -207 229 -392 246 -410 l31 -33 99 0 c107 0 144 13 144 51 0 11
-101 195 -225 409 -124 214 -225 394 -225 399 0 6 6 11 14 11 7 0 51 19 96 41
234 117 338 356 285 654 -39 220 -187 367 -440 437 -76 21 -102 22 -535 25
-250 2 -460 0 -467 -4z m932 -256 c165 -54 243 -179 233 -371 -10 -186 -109
-294 -298 -326 -40 -6 -173 -10 -340 -8 l-275 3 -3 350 c-1 192 0 356 3 363 8
22 612 12 680 -11z"/>
<path d="M7835 7226 c-15 -23 -6 -78 176 -987 169 -845 195 -965 217 -990 23
-28 27 -29 118 -29 86 0 97 2 118 24 17 16 50 105 115 305 50 154 132 408 182
562 50 155 94 277 98 273 4 -5 85 -250 181 -544 95 -294 179 -549 187 -566 19
-43 50 -54 144 -54 85 0 112 8 129 40 12 22 390 1900 390 1935 0 44 -28 55
-136 55 -67 0 -106 -4 -118 -13 -14 -10 -48 -165 -162 -753 -80 -406 -148
-748 -152 -758 -6 -13 -53 129 -161 480 -172 558 -176 571 -202 584 -10 6 -56
10 -103 10 -74 0 -88 -3 -111 -22 -22 -19 -50 -104 -183 -540 -87 -285 -161
-520 -164 -523 -3 -3 -72 333 -154 747 -111 559 -154 757 -166 770 -15 15 -36
18 -123 18 -100 0 -105 -1 -120 -24z"/>
<path d="M10297 7232 c-16 -17 -17 -101 -17 -999 0 -937 1 -981 18 -996 25
-23 208 -24 238 -3 18 14 19 32 22 450 l3 436 499 0 499 0 3 -436 c3 -418 4
-436 22 -450 14 -10 49 -14 121 -14 86 0 104 3 118 18 16 17 17 101 17 999 0
937 -1 981 -18 996 -25 23 -208 24 -238 3 -18 -14 -19 -32 -22 -435 l-3 -421
-499 0 -499 0 -3 421 c-3 403 -4 421 -22 435 -14 10 -49 14 -121 14 -86 0
-104 -3 -118 -18z"/>
<path d="M14344 7236 c-19 -14 -19 -37 -22 -995 -3 -1150 -20 -1021 136 -1021
83 0 102 3 115 18 16 17 17 83 17 747 0 454 4 725 9 719 6 -5 118 -220 251
-479 133 -258 253 -480 267 -492 21 -20 35 -23 107 -23 65 0 88 4 104 18 12 9
132 235 269 502 l248 485 5 -733 c5 -712 6 -734 24 -748 14 -10 49 -14 116
-14 81 0 100 3 113 18 16 17 17 101 17 999 0 937 -1 981 -18 996 -15 14 -40
17 -119 17 -99 0 -102 -1 -125 -28 -12 -16 -160 -290 -328 -610 -168 -319
-308 -577 -312 -574 -3 4 -142 268 -308 587 -167 319 -312 590 -323 603 -19
20 -29 22 -122 22 -72 0 -107 -4 -121 -14z"/>
<path d="M16650 7230 c-20 -20 -20 -33 -20 -995 0 -962 0 -975 20 -995 20 -20
33 -20 658 -20 606 0 640 1 655 18 13 14 17 39 17 110 0 80 -2 93 -19 102 -13
6 -199 10 -535 10 l-516 0 0 335 0 335 479 0 480 0 15 22 c11 15 16 46 16 96
0 64 -3 76 -25 97 l-24 25 -471 0 -470 0 0 320 0 320 508 0 c596 0 542 -12
542 122 0 70 -3 88 -18 101 -17 15 -76 17 -645 17 -614 0 -627 0 -647 -20z"/>
<path d="M4400 2370 l0 -2320 2280 0 2280 0 2 1987 3 1988 1035 0 1035 0 3
-1988 2 -1987 2280 0 2280 0 0 2320 0 2320 -5600 0 -5600 0 0 -2320z"/>
</g>
</svg>
